
<svg xmlns="http://www.w3.org/2000/svg" xmlns:xlink="http://www.w3.org/1999/xlink" width="19.5" height="19.486" viewBox="0 0 19.5 19.486">
  <defs>
    <clipPath id="clip-path">
      <rect id="Rectangle_8165" data-name="Rectangle 8165" width="19.5" height="19.486" transform="translate(0 0)" fill="#3f3a64"/>
    </clipPath>
  </defs>
  <g id="Groupe_14182" data-name="Groupe 14182" transform="translate(0 0)">
    <g id="Groupe_14181" data-name="Groupe 14181" clip-path="url(#clip-path)">
      <path id="Tracé_12" data-name="Tracé 12" d="M17.905,5.982,12.241.947a3.749,3.749,0,0,0-4.982,0L1.6,5.982A4.75,4.75,0,0,0,0,9.532v5.2a4.756,4.756,0,0,0,4.75,4.75h10a4.756,4.756,0,0,0,4.75-4.75v-5.2a4.75,4.75,0,0,0-1.595-3.55M18,14.736a3.254,3.254,0,0,1-3.25,3.25h-10a3.254,3.254,0,0,1-3.25-3.25v-5.2A3.25,3.25,0,0,1,2.591,7.1L8.255,2.068a2.251,2.251,0,0,1,2.99,0L16.909,7.1A3.25,3.25,0,0,1,18,9.532Z" fill="#3f3a64"/>
      <path id="Tracé_13" data-name="Tracé 13" d="M13.75,13.986h-8a.75.75,0,0,0,0,1.5h8a.75.75,0,0,0,0-1.5" fill="#3f3a64"/>
    </g>
  </g>
</svg>
